<svg id="SvgjsSvg1001" width="288" height="288" xmlns="http://www.w3.org/2000/svg" version="1.1" xmlns:xlink="http://www.w3.org/1999/xlink" xmlns:svgjs="http://svgjs.com/svgjs"><defs id="SvgjsDefs1002"></defs><g id="SvgjsG1008" transform="matrix(1,0,0,1,0,0)"><svg xmlns="http://www.w3.org/2000/svg" enable-background="new 0 0 223.9 181.4" viewBox="0 0 223.9 181.4" width="288" height="288"><g class="st0 color000 svgShape" fill="#ffffff"><path d="M1.4,17l158.3,0.3c35.2,0,46.2,21.5,46.2,50.7c0,33-23,53.2-54.7,53.2H91.1l-13.5,42.9l-23.6,0.1l19.7-65.8
				l78.4,0c17,0,30.9-10.1,31.5-29.7c0.7-19.8-6.5-29-27.9-29L37.4,39.7L32,56.2l123.9-0.6c10.6,0,10.9,2.7,10.7,12.6
				c-0.4,14-10.4,14-20.8,14H62.4l-30.6,98.1l57.4,0l14-43.3l47.5,0.1c50.6-1.8,71.9-36,71.7-70.7C222.3,23,196.4,0.9,152.9,1.1
				L5.6,1.3L1.4,17L1.4,17z" class="st1 color000 svgShape" fill="#ffffff"></path><path d="M1.4 17l158.3.3c40.5 0 52.7 16.4 59.1 23.4C207.9 5.6 171.5.6 152.9 1.1L5.7 1.3 1.4 17 1.4 17zM183.5 67.7c.7-18.6-6.1-28.1-27.9-28.1L37.4 39.7 32 56.2l123.9-.6C173.7 55.6 177.5 57.8 183.5 67.7z" class="st2 color000 svgShape" fill="#ffffff"></path></g><path d="M1.4,17l158.3,0.3c35.2,0,46.2,21.5,46.2,50.7c0,33-23,53.2-54.7,53.2H91.1l-13.5,42.9l-23.6,0.1l19.7-65.8
			l78.4,0c17,0,30.9-10.1,31.5-29.7c0.7-19.8-6.5-29-27.9-29L37.4,39.7L32,56.2l123.9-0.6c10.6,0,10.9,2.7,10.7,12.6
			c-0.4,14-10.4,14-20.8,14H62.4l-30.6,98.1l57.4,0l14-43.3l47.5,0.1c50.6-1.8,71.9-36,71.7-70.7C222.3,23,196.4,0.9,152.9,1.1
			L5.6,1.3L1.4,17L1.4,17z" class="st3 color000 svgShape" fill="#ffffff"></path><path d="M65.1,17.1l94.6,0.2c15.6,0,26.5,4.3,33.8,11.5c2.4-0.1,16.2,5,26.6,16.3c-3-11.6-8.5-21-16.4-28H65.1z" class="st4 color000 svgShape" fill="#ffffff"></path><path d="M1.4,17l158.3,0.3c40.5,0,52.7,16.4,59.1,23.4C207.9,5.6,171.5,0.6,152.9,1.1L5.7,1.3L1.4,17L1.4,17z" class="st5 color000 svgShape" fill="#ffffff"></path><path d="M183.3,71.3c0.1-1,0.2-1.6,0.2-2.7c0.2-5.9-0.3-10.8-1.6-14.9l-32.5,1.9l6.5,0c8.5,0,10.4,1.7,10.7,7.5
			C169.9,63.5,176.8,62.7,183.3,71.3L183.3,71.3z" class="st4 color000 svgShape" fill="#ffffff"></path><path d="M183.5,67.7c0.7-18.6-6.1-28.1-27.9-28.1L37.4,39.7L32,56.2l123.9-0.6C173.7,55.6,177.5,57.8,183.5,67.7z" class="st5 color000 svgShape" fill="#ffffff"></path></svg></g></svg>