<?xml version="1.0" standalone="no"?>
<!DOCTYPE svg PUBLIC "-//W3C//DTD SVG 20010904//EN"
 "http://www.w3.org/TR/2001/REC-SVG-20010904/DTD/svg10.dtd">
<svg version="1.0" xmlns="http://www.w3.org/2000/svg"
 width="700.000000pt" height="700.000000pt" viewBox="0 0 700.000000 700.000000"
 preserveAspectRatio="xMidYMid meet">
<metadata>
Created by potrace 1.14, written by Peter Selinger 2001-2017
</metadata>
<g transform="translate(0.000000,700.000000) scale(0.100000,-0.100000)"
fill="#000000" stroke="none">
<path d="M2159 6302 l-1985 -2 -67 -247 c-36 -136 -65 -248 -64 -249 1 -1
1152 -5 2557 -8 1405 -4 2571 -9 2590 -12 274 -32 402 -66 564 -146 451 -223
674 -681 678 -1392 2 -252 -21 -419 -84 -616 -162 -510 -572 -886 -1109 -1019
-228 -57 -179 -55 -1324 -58 -583 -2 -1063 -7 -1066 -11 -4 -4 -30 -79 -57
-167 -28 -88 -76 -241 -107 -340 -78 -247 -212 -676 -237 -757 l-21 -68 -46
-1 c-25 0 -190 -1 -366 -2 -290 -2 -320 0 -317 14 2 14 407 1371 487 1634 14
44 46 152 72 240 l48 160 1145 2 c1431 2 1476 3 1600 36 177 47 317 126 431
240 109 110 185 245 223 399 31 122 36 172 37 344 0 471 -156 700 -541 792
l-115 27 -1960 0 -1959 0 -83 -250 c-45 -137 -82 -255 -82 -260 -1 -6 35 -10
91 -9 51 1 953 5 2003 9 2110 8 1984 12 2053 -53 42 -40 55 -96 57 -251 4
-341 -92 -463 -400 -505 -16 -3 -666 -5 -1443 -5 -1121 -1 -1413 -4 -1417 -13
-2 -7 -46 -150 -98 -318 -163 -524 -567 -1821 -597 -1915 -15 -49 -46 -148
-69 -220 -22 -71 -73 -236 -114 -365 -41 -129 -72 -237 -71 -239 7 -8 1786 -3
1793 5 4 5 19 45 33 89 68 211 210 653 218 675 5 14 48 147 95 295 48 149 90
273 94 277 3 4 386 9 851 11 465 2 865 7 890 11 379 59 595 119 815 226 231
112 393 226 566 399 389 390 603 941 603 1556 0 96 -11 317 -18 350 -2 11 -7
47 -11 80 -11 98 -62 323 -95 425 -219 670 -799 1087 -1650 1186 -173 20 -225
20 -3021 16z"/>
</g>
</svg>
